<svg width="39" height="38" viewBox="0 0 39 38" fill="none" xmlns="http://www.w3.org/2000/svg">
<mask id="mask0_57_56" style="mask-type:alpha" maskUnits="userSpaceOnUse" x="0" y="0" width="39" height="38">
<path d="M30.6621 17.2977H8.46657C6.71539 17.2977 5.29578 18.6636 5.29578 20.3485V31.026C5.29578 32.7109 6.71539 34.0768 8.46657 34.0768H30.6621C32.4133 34.0768 33.8329 32.7109 33.8329 31.026V20.3485C33.8329 18.6636 32.4133 17.2977 30.6621 17.2977Z" stroke="white" stroke-width="1.39538" stroke-linecap="round" stroke-linejoin="round"/>
<path d="M11.6379 17.2978V11.1963C11.6379 9.17353 12.4731 7.23362 13.9597 5.80331C15.4463 4.373 17.4626 3.56946 19.5649 3.56946C21.6673 3.56946 23.6836 4.373 25.1701 5.80331C26.6567 7.23362 27.4919 9.17353 27.4919 11.1963V17.2978" stroke="white" stroke-width="1.39538" stroke-linecap="round" stroke-linejoin="round"/>
</mask>
<g mask="url(#mask0_57_56)">
<path d="M0.539551 -0.227905H49.3906V47.5195H0.539551V-0.227905Z" fill="url(#paint0_linear_57_56)"/>
</g>
<defs>
<linearGradient id="paint0_linear_57_56" x1="0.539551" y1="-0.227905" x2="48.2745" y2="48.6104" gradientUnits="userSpaceOnUse">
<stop stop-color="#90F7EC"/>
<stop offset="1" stop-color="#32CCBC"/>
</linearGradient>
</defs>
</svg>
