<svg width="33" height="32" viewBox="0 0 33 32" fill="none" xmlns="http://www.w3.org/2000/svg">
<mask id="mask0_57_97" style="mask-type:alpha" maskUnits="userSpaceOnUse" x="0" y="0" width="33" height="32">
<path d="M25.4605 14.8096H7.13459C5.68871 14.8096 4.5166 15.9817 4.5166 17.4276V26.5905C4.5166 28.0364 5.68871 29.2085 7.13459 29.2085H25.4605C26.9063 29.2085 28.0785 28.0364 28.0785 26.5905V17.4276C28.0785 15.9817 26.9063 14.8096 25.4605 14.8096Z" stroke="white" stroke-width="1.02625" stroke-linecap="round" stroke-linejoin="round"/>
<path d="M9.75269 14.8096V9.57365C9.75269 7.83782 10.4422 6.17308 11.6697 4.94566C12.8971 3.71824 14.5618 3.02869 16.2976 3.02869C18.0335 3.02869 19.6982 3.71824 20.9256 4.94566C22.1531 6.17308 22.8426 7.83782 22.8426 9.57365V14.8096" stroke="white" stroke-width="1.02625" stroke-linecap="round" stroke-linejoin="round"/>
</mask>
<g mask="url(#mask0_57_97)">
<path d="M0.589355 0.410767H32.0052V29.7322H0.589355V0.410767Z" fill="url(#paint0_linear_57_97)"/>
</g>
<defs>
<linearGradient id="paint0_linear_57_97" x1="0.589355" y1="0.410767" x2="29.8411" y2="31.752" gradientUnits="userSpaceOnUse">
<stop stop-color="#90F7EC"/>
<stop offset="1" stop-color="#32CCBC"/>
</linearGradient>
</defs>
</svg>
